<?xml version="1.0" encoding="UTF-8"?>
<!DOCTYPE svg PUBLIC "-//W3C//DTD SVG 1.1//EN" "http://www.w3.org/Graphics/SVG/1.1/DTD/svg11.dtd">
<!-- Creator: CorelDRAW -->
<svg xmlns="http://www.w3.org/2000/svg" xml:space="preserve" width="0.670236in" height="0.685311in" version="1.1" style="shape-rendering:geometricPrecision; text-rendering:geometricPrecision; image-rendering:optimizeQuality; fill-rule:evenodd; clip-rule:evenodd"
viewBox="0 0 222.9 227.91"
 xmlns:xlink="http://www.w3.org/1999/xlink"
 xmlns:xodm="http://www.corel.com/coreldraw/odm/2003">
 <defs>
  <style type="text/css">
   <![CDATA[
    .fil0 {fill:#38A6DE}
   ]]>
  </style>
 </defs>
 <g id="Layer_x0020_1">
  <metadata id="CorelCorpID_0Corel-Layer"/>
  <path class="fil0" d="M210.7 227.91l-23.4 0 0 -157.11 32.02 32.02c2.37,2.38 3.57,5.26 3.57,8.62l0 104.28c0,6.72 -5.48,12.19 -12.19,12.19zm-50.91 0l-147.6 0c-6.72,0 -12.19,-5.48 -12.19,-12.19l0 -5.36 64.73 -102.14 0 88.6c0,2.7 0.47,5.12 1.41,7.28 0.95,2.16 2.23,4.05 3.84,5.66 1.62,1.62 3.51,2.87 5.66,3.74 2.16,0.88 4.45,1.31 6.88,1.31 2.83,0 5.59,-0.67 8.29,-2.02 2.7,-1.35 5.19,-3.84 7.49,-7.48l61.49 -97.09 0 119.69zm-159.8 -66.56l0 -49.91c0,-3.36 1.2,-6.25 3.57,-8.62l99.26 -99.26c4.75,-4.75 12.49,-4.75 17.24,0l52.48 52.48c-2,0.28 -3.93,0.85 -5.78,1.71 -2.76,1.28 -5.09,3.4 -6.98,6.37l-67.56 101.54 0 -96.08c0,-4.18 -1.08,-7.52 -3.24,-10.01 -2.16,-2.49 -4.99,-3.74 -8.49,-3.74 -2.97,0 -5.87,0.64 -8.7,1.92 -2.83,1.28 -5.19,3.4 -7.08,6.37l-64.73 97.23z"/>
 </g>
</svg>
