<?xml version="1.0" encoding="UTF-8"?>
<!DOCTYPE svg PUBLIC "-//W3C//DTD SVG 1.1//EN" "http://www.w3.org/Graphics/SVG/1.1/DTD/svg11.dtd">
<!-- Creator: CorelDRAW -->
<svg xmlns="http://www.w3.org/2000/svg" xml:space="preserve" width="0.97087in" height="0.970866in" version="1.1" style="shape-rendering:geometricPrecision; text-rendering:geometricPrecision; image-rendering:optimizeQuality; fill-rule:evenodd; clip-rule:evenodd"
viewBox="0 0 62.93 62.93"
 xmlns:xlink="http://www.w3.org/1999/xlink"
 xmlns:xodm="http://www.corel.com/coreldraw/odm/2003">
 <defs>
  <style type="text/css">
   <![CDATA[
    .fil1 {fill:#000033}
    .fil0 {fill:white}
   ]]>
  </style>
 </defs>
 <g id="Layer_x0020_1">
  <metadata id="CorelCorpID_0Corel-Layer"/>
  <g id="_2736558899648">
   <rect class="fil0" x="0" y="0" width="62.93" height="62.93" rx="11.36" ry="11.36"/>
   <path class="fil1" d="M50.81 53.68l-4.56 0 0 -30.62 6.24 6.24c0.46,0.46 0.7,1.03 0.7,1.68l0 20.32c0,1.31 -1.07,2.38 -2.38,2.38zm-9.92 0l-28.77 0c-1.31,0 -2.38,-1.07 -2.38,-2.38l0 -1.05 12.62 -19.91 0 17.27c0,0.53 0.09,1 0.28,1.42 0.18,0.42 0.43,0.79 0.75,1.1 0.32,0.32 0.68,0.56 1.1,0.73 0.42,0.17 0.87,0.26 1.34,0.26 0.55,0 1.09,-0.13 1.62,-0.39 0.53,-0.26 1.01,-0.75 1.46,-1.46l11.98 -18.92 0 23.33zm-31.15 -12.97l0 -9.73c0,-0.65 0.23,-1.22 0.7,-1.68l19.35 -19.35c0.93,-0.93 2.44,-0.93 3.36,0l10.23 10.23c-0.39,0.06 -0.77,0.17 -1.13,0.33 -0.54,0.25 -0.99,0.66 -1.36,1.24l-13.17 19.79 0 -18.73c0,-0.81 -0.21,-1.47 -0.63,-1.95 -0.42,-0.49 -0.97,-0.73 -1.66,-0.73 -0.58,0 -1.14,0.12 -1.7,0.37 -0.55,0.25 -1.01,0.66 -1.38,1.24l-12.62 18.95z"/>
  </g>
 </g>
</svg>
