<?xml version="1.0" encoding="UTF-8"?>
<!DOCTYPE svg PUBLIC "-//W3C//DTD SVG 1.1//EN" "http://www.w3.org/Graphics/SVG/1.1/DTD/svg11.dtd">
<!-- Creator: CorelDRAW -->
<svg xmlns="http://www.w3.org/2000/svg" xml:space="preserve" width="0.970866in" height="0.970866in" version="1.1" style="shape-rendering:geometricPrecision; text-rendering:geometricPrecision; image-rendering:optimizeQuality; fill-rule:evenodd; clip-rule:evenodd"
viewBox="0 0 78.67 78.67"
 xmlns:xlink="http://www.w3.org/1999/xlink"
 xmlns:xodm="http://www.corel.com/coreldraw/odm/2003">
 <defs>
  <style type="text/css">
   <![CDATA[
    .fil1 {fill:#38A6DE}
    .fil0 {fill:white}
   ]]>
  </style>
 </defs>
 <g id="Layer_x0020_1">
  <metadata id="CorelCorpID_0Corel-Layer"/>
  <g id="_2773299640080">
   <rect class="fil0" x="-0" y="0" width="78.67" height="78.67" rx="14.2" ry="14.2"/>
   <path class="fil1" d="M63.52 67.1l-5.7 0 0 -38.28 7.8 7.8c0.58,0.58 0.87,1.28 0.87,2.1l0 25.41c0,1.64 -1.33,2.97 -2.97,2.97zm-12.4 0l-35.96 0c-1.64,0 -2.97,-1.33 -2.97,-2.97l0 -1.31 15.77 -24.89 0 21.59c0,0.66 0.11,1.25 0.34,1.77 0.23,0.53 0.54,0.99 0.94,1.38 0.39,0.39 0.85,0.7 1.38,0.91 0.53,0.21 1.08,0.32 1.68,0.32 0.69,0 1.36,-0.16 2.02,-0.49 0.66,-0.33 1.26,-0.94 1.82,-1.82l14.98 -23.66 0 29.16zm-38.93 -16.22l0 -12.16c0,-0.82 0.29,-1.52 0.87,-2.1l24.18 -24.18c1.16,-1.16 3.04,-1.16 4.2,0l12.79 12.79c-0.49,0.07 -0.96,0.21 -1.41,0.42 -0.67,0.31 -1.24,0.83 -1.7,1.55l-16.46 24.74 0 -23.41c0,-1.02 -0.26,-1.83 -0.79,-2.44 -0.53,-0.61 -1.22,-0.91 -2.07,-0.91 -0.72,0 -1.43,0.16 -2.12,0.47 -0.69,0.31 -1.26,0.83 -1.72,1.55l-15.77 23.69z"/>
  </g>
 </g>
</svg>
