<?xml version="1.0" encoding="UTF-8"?>
<!DOCTYPE svg PUBLIC "-//W3C//DTD SVG 1.1//EN" "http://www.w3.org/Graphics/SVG/1.1/DTD/svg11.dtd">
<!-- Creator: CorelDRAW -->
<svg xmlns="http://www.w3.org/2000/svg" xml:space="preserve" width="0.670236in" height="0.685311in" version="1.1" style="shape-rendering:geometricPrecision; text-rendering:geometricPrecision; image-rendering:optimizeQuality; fill-rule:evenodd; clip-rule:evenodd"
viewBox="0 0 458.08 468.39"
 xmlns:xlink="http://www.w3.org/1999/xlink"
 xmlns:xodm="http://www.corel.com/coreldraw/odm/2003">
 <defs>
  <style type="text/css">
   <![CDATA[
    .fil0 {fill:#000033}
   ]]>
  </style>
 </defs>
 <g id="Layer_x0020_1">
  <metadata id="CorelCorpID_0Corel-Layer"/>
  <path class="fil0" d="M433.03 468.39l-48.09 0 0 -322.88 65.81 65.8c4.88,4.88 7.34,10.82 7.34,17.72l0 214.3c0,13.8 -11.26,25.06 -25.06,25.06zm-104.62 0l-303.35 0c-13.8,0 -25.06,-11.26 -25.06,-25.06l0 -11.02 133.03 -209.91 0 182.08c0,5.54 0.97,10.53 2.91,14.96 1.95,4.43 4.57,8.31 7.9,11.64 3.33,3.33 7.21,5.89 11.64,7.69 4.43,1.8 9.15,2.7 14.13,2.7 5.82,0 11.5,-1.38 17.04,-4.16 5.54,-2.77 10.67,-7.89 15.38,-15.38l126.37 -199.53 0 245.99zm-328.4 -136.78l0 -102.58c0,-6.9 2.46,-12.84 7.34,-17.72l203.98 -203.98c9.76,-9.76 25.68,-9.76 35.44,0l107.85 107.85c-4.11,0.58 -8.07,1.75 -11.87,3.52 -5.68,2.63 -10.46,7 -14.34,13.09l-138.84 208.67 0 -197.45c0,-8.59 -2.22,-15.45 -6.65,-20.58 -4.43,-5.13 -10.26,-7.69 -17.46,-7.69 -6.1,0 -12.05,1.32 -17.88,3.95 -5.82,2.63 -10.67,7 -14.55,13.09l-133.03 199.82z"/>
 </g>
</svg>
